<?xml version="1.0" encoding="UTF-8"?>
<svg id="_레이어_1" data-name="레이어 1" xmlns="http://www.w3.org/2000/svg" viewBox="0 0 355.69 474.12">
  <defs>
    <style>
      .cls-1 {
        fill: #32ad38;
      }

      .cls-1, .cls-2, .cls-3, .cls-4, .cls-5, .cls-6, .cls-7, .cls-8, .cls-9, .cls-10, .cls-11, .cls-12 {
        stroke-width: 0px;
      }

      .cls-13 {
        fill: #231916;
      }

      .cls-13, .cls-14 {
        stroke: #231916;
        stroke-miterlimit: 10;
        stroke-width: 5px;
      }

      .cls-2 {
        fill: #e60013;
      }

      .cls-3 {
        fill: #5b0e12;
      }

      .cls-4 {
        fill: #232323;
      }

      .cls-5 {
        fill: #0a4626;
      }

      .cls-6 {
        fill: #b1ae73;
      }

      .cls-7 {
        fill: #2f1608;
      }

      .cls-14 {
        fill: none;
      }

      .cls-8 {
        fill: #510a0e;
      }

      .cls-9 {
        fill: #c30f23;
      }

      .cls-10 {
        fill: #682418;
      }

      .cls-11 {
        fill: #fff;
      }

      .cls-12 {
        fill: #f6f4ad;
      }
    </style>
  </defs>
  <g id="_본체" data-name="본체">
    <g id="_왼팔" data-name="왼팔">
      <path class="cls-10" d="M311.34,316.78l1.29-5.78c1.36-6.07-1.8-13.31-8.38-14.76-1.09-.24-2.19-.48-3.28-.72-8.5-1.88-17.69,5.6-14.76,14.76,4.78,14.94,6.11,30.63,3.14,46.08h23.14c-2.09-9.64-1.82-19.41.58-28.97,3.77-15.02-18.59-21.13-23.14-6.38-5.48,17.75-10.96,35.49-16.44,53.24-2.07,6.7,2.51,12.4,8.38,14.76s10.64,5.96,14.95,10.23l2.43-18.85c1.91-.42,3.82-.53,5.74-.33-4.18-3.16-11.1-1.57-14.54,1.88-3.81,3.81-4.48,9.88-1.88,14.54l-.15-.02c1.29,6.18,8.87,10.24,14.76,8.38,5.49-1.74,10.8-3.86,16.08-6.15-5.47-5.47-10.95-10.95-16.42-16.42-.66.87-1.32,1.73-1.98,2.6-3.18,4.16-1.55,11.11,1.88,14.54,4.03,4.03,9.63,4.11,14.54,1.88,15.68-7.12,22.35-28.3,28.61-42.91,3.49-8.15-.44-17.93-10.36-18.06-8.48-.11-13.88,5.69-19.63,11.06-5.41,5.05-10.82,10.11-16.23,15.16,6.28,4.85,12.56,9.69,18.85,14.54,8.56-12.75,16.86-26.42,17.43-42.22.52-14.34-6.02-28.87-18.65-36.2,1.44,5.47,2.87,10.95,4.31,16.42,3.26-5.9,2.4-12-2.17-16.95-3.64-3.94-10.03-4.41-14.54-1.88-7.82,4.38-14.22,10.83-18.43,18.76s.85,18.63,10.36,18.06c7.31-.44,11.57-4.07,15.56-9.8.16-.23,1.74-2.38.81-1.16-.67.87-.16-.27.55-.37-1.54.21.69-.26,1.22-.37,2.3-.46-2.8.66,1.19-.02-1.04.18-.37-.01.52.15-1.76-.31,1.06.47.35.08.39.21,1.09,1.14,2.1,2.62,3.24,4.76,6.41,8.96,11.34,12.09,10.23,6.49,22.47-6.31,16.42-16.42-5.66-9.45-13.54-17.24-23.16-22.64l-9.25,21.93c5.25,2.2,10.29,5.51,14.59,9.21,10.05,8.66,25.81-2.17,18.85-14.54-2.98-5.3-6.84-10.1-11.55-13.97-5-4.11-12.07-4.9-16.97,0-4.38,4.38-4.86,12.65,0,16.97,2.51,2.23,4.98,4.59,7.07,7.23,1.53,1.94,4.22,4.98,4.72,7.47.7,3.52-3.33,9.97-4.86,13.36-2.88,6.4-6.08,12.69-10.13,18.43s-8.62,11.01-10.01,18.23c-1.84,9.56,5.45,16.26,14.76,14.76,17.18-2.76,24.87-19.65,29.34-34.47,4.48-14.82-18.68-21.15-23.14-6.38-2.32,7.68-4.5,16.41-12.58,17.71,4.92,4.92,9.84,9.84,14.76,14.76,1.3-6.76,7.89-12.46,11.37-18.4,4.38-7.48,7.7-15.51,11.06-23.48,3.84-9.13,4.72-17.47.15-26.64-3.68-7.39-9.4-14.1-15.54-19.56l-16.97,16.97c3.28,2.7,5.71,5.41,7.79,9.11,6.28-4.85,12.56-9.69,18.85-14.54-7.7-6.63-15.84-11.47-25.18-15.39-5.43-2.27-12.17,2.01-14.16,6.95-2.18,5.41-.4,12.01,4.91,14.99,6.14,3.45,10.93,7.97,14.55,14.03,5.47-5.47,10.95-10.95,16.42-16.42.91.58-1.29-1.27-1.5-1.53.84,1.05-.66-1.1-.85-1.38-1.68-2.5-3.41-5.11-5.49-7.29-4.2-4.41-9.75-6.94-15.72-7.71s-12.13.35-17.37,3.36c-2.28,1.31-4.5,3.08-6.25,5.04-1.28,1.43-2.24,2.99-3.34,4.53-1.2,1.67-.8.36-.08.05l6.06-1.64-1.19.07c3.45,6.02,6.91,12.04,10.36,18.06,2.41-4.53,5.35-7.64,9.82-10.15l-14.54-1.88.62.67-3.51-8.49.11.93,1.64-6.06-.44.8c-3.13,5.66-1.42,13.1,4.31,16.42s7.54,10.36,6.67,17.28c-1.2,9.64-8.36,19.81-14.06,28.3-7.83,11.66,9.2,23.56,18.85,14.54,4-3.73,8-7.47,11.99-11.2,1.88-1.76,3.76-3.51,5.64-5.27.74-.69,2.39-1.73,2.82-2.64.69-1.46,1.74-.04-1.57-.08-3.45-6.02-6.91-12.04-10.36-18.06-3.1,7.23-6.2,14.48-9.81,21.47-2.63,5.11-4.99,10.47-10.19,12.83,5.47,5.47,10.95,10.95,16.42,16.42.66-.87,1.32-1.73,1.98-2.6,3.18-4.16,1.55-11.11-1.88-14.54-4.07-4.07-9.58-4.03-14.54-1.88-3.36,1.46-6.85,2.63-10.34,3.73,4.92,2.79,9.84,5.59,14.76,8.38-.43-2.06-1.25-3.88-2.27-5.71-5.47,5.47-10.95,10.95-16.42,16.42,5.3,4.01,12.98,3.66,18.49.33,6.58-3.97,7.98-13.34,2.43-18.85-7.4-7.34-15.91-12.53-25.54-16.4,2.79,4.92,5.59,9.84,8.38,14.76,5.48-17.75,10.96-35.49,16.44-53.24-7.71-2.13-15.43-4.25-23.14-6.38-3.47,13.82-3.6,27.81-.58,41.73,2.45,11.29,20.91,11.61,23.14,0,3.78-19.67,2.98-39.7-3.14-58.84-4.92,4.92-9.84,9.84-14.76,14.76,1.09.24,2.19.48,3.28.72-2.79-4.92-5.59-9.84-8.38-14.76l-1.29,5.78c-1.41,6.32,1.92,12.99,8.38,14.76,6.03,1.66,13.34-2.03,14.76-8.38h0Z"/>
      <path class="cls-7" d="M269.71,381.02l11.04,6.64,9.13,15.25,8.25,2.37c.06.74-13.01-7.24-8.1-25,4.16-15.03,8.95-16.76,8.95-16.76l-13.88-12.62.15-9.86-15.54,39.98Z"/>
      <path id="_왼손" data-name="왼손" class="cls-14" d="M290.45,296.28c11.77-.23,23.76-.44,35.03,2.96s21.89,11.05,25.82,22.15c2.41,6.81,2.12,14.25,1.38,21.43-1.72,16.88-6.08,34.21-17.14,47.08-11.06,12.87-30.17,19.95-45.65,13.02"/>
      <path id="_왼손_엄지" data-name="왼손 엄지" class="cls-14" d="M285.13,331.99c-.08,6.19-.14,12.51,1.76,18.4,1.9,5.89,6.15,11.39,12.09,13.12,8.72,2.55,18.01-3.98,21.76-12.24,3.75-8.27,3.36-17.74,2.91-26.81"/>
    </g>
    <g id="_몸통" data-name="몸통">
      <g>
        <path class="cls-12" d="M86.92,413.57l7.34-10.5c-2.6,12.37-15.45,21.18-28.08,20.71-10.26-.37-22.58-12.7-27.55-18.11l.6-.13v.03s-2.46-23.24,5.35-37.28c6.01-10.81,19.48-26.8,19.9-27.3l-13.57,4.85-11.51,10.61c2.25-3.66,5.03-7.02,8.37-9.72,1.87-1.52,3.92-2.83,6.12-3.82,2.38-1.07,4.49-.61,6.96-1.23,1.26-.31,2.49-.91,3.35-1.88,1.1-1.25,1.48-2.5,1.48-3.75h.86v5.32s12.46-43.75,23.66-62.38c11.19-18.64,23.41-42.24,23.41-42.24l-35.54,14.95-4.14,11.96-7.39,32.89-1.41-.15c.44-4.05,1.01-8.1,1.72-12.12,1.99-11.25,5.03-22.32,9.17-32.97,18.69-48.13,3.33-116.84,46.47-145.21,4.61-3.03,10.06-5.08,15.19-7.06,5.29-2.05,10.71-3.77,16.22-5.12,18.92-4.66,38.97-5.1,57.93-.38,28.27,7.05,53.79,25.93,67.05,51.88,15.85,31.02,13.33,67.78,11.9,102.59-1.86,45.19-1.6,92.18-21.06,133,17.83,5.54,25.05,27.89,22.09,46.32-2.52,15.71-11.01,30.97-24.75,38.97-13.75,8-32.89,7.2-44.21-3.98-.8-.79-1.54-1.62-2.2-2.5l.83-.64s1.81-10.29,4.98-15.56c3.16-5.28,4.78-5.9,12.39-10.95-6.07-3.7-10.02-12.66-12.22-13.33l-6.22,8.39-5.62,10.49h-.09c.73-7.03,3.9-13.64,9.63-17.86-8.42-9.61-88.37-10.4-130.07-17.29l13.42.04s-7.51-3.21-12.41-7.08c-4.91-3.87-6.93-6.47-6.93-6.47,0,0,.56,1.53.25,10.08-.3,8.28-1.6,13.61-1.67,13.93Z"/>
        <path class="cls-6" d="M226.63,419.34c2.2.67,6.15,9.63,12.22,13.33-7.61,5.05-9.23,5.67-12.39,10.95-3.17,5.27-4.98,15.56-4.98,15.56l-6.69-20.96,5.62-10.49,6.22-8.39Z"/>
        <path class="cls-12" d="M214.79,438.22l6.69,20.96-.83.64c-4.71-6.02-6.74-14.05-5.95-21.61h.09Z"/>
        <path class="cls-6" d="M78.07,251.7l35.54-14.95s-12.22,23.6-23.41,42.24c-11.2,18.63-23.66,62.38-23.66,62.38v-44.82l7.39-32.89,4.14-11.96Z"/>
        <path class="cls-6" d="M107.68,403.11l-13.42-.04-7.34,10.5c.07-.32,1.37-5.65,1.67-13.93.31-8.55-.25-10.08-.25-10.08,0,0,2.02,2.6,6.93,6.47,4.9,3.87,12.41,7.08,12.41,7.08Z"/>
        <path class="cls-12" d="M66.54,296.55v39.5h-.86c0-2.1-1.05-4.21-1.58-6.37-1.1-4.53-.35-10.16-.23-14.8.16-6.17.56-12.34,1.26-18.48l1.41.15Z"/>
        <path class="cls-6" d="M50.91,345.84l13.57-4.85c-.42.5-13.89,16.49-19.9,27.3-7.81,14.04-5.34,37.28-5.34,37.28v-.03s-5.24-24.59-5.24-24.59l5.39-24.48h0s.01-.02.01-.02l11.51-10.61Z"/>
        <path class="cls-12" d="M39.39,356.47l-5.39,24.48h-.73c-.1-5.32.29-10.64,1.59-14.67.89-2.76,2.08-5.51,3.54-8.12.32-.57.65-1.14.99-1.69Z"/>
        <path class="cls-12" d="M34,380.95l5.23,24.59-.6.13c-1.14-1.25-1.9-2.13-2.15-2.41-.88-1-3.02-11.7-3.21-22.3h.73Z"/>
      </g>
      <path class="cls-14" d="M39.39,356.47c-.34.55-.67,1.12-.99,1.69-1.46,2.61-2.65,5.36-3.54,8.12-1.3,4.03-1.69,9.35-1.59,14.68.19,10.6,2.33,21.3,3.21,22.3.25.28,1.01,1.16,2.15,2.41,4.97,5.41,17.29,17.74,27.55,18.11,12.63.47,25.48-8.34,28.08-20.71,41.7,6.89,121.65,7.68,130.07,17.29-5.73,4.22-8.9,10.83-9.63,17.85-.79,7.56,1.24,15.59,5.95,21.61.66.88,1.4,1.71,2.2,2.5,11.32,11.18,30.46,11.98,44.21,3.98,13.74-8,22.23-23.26,24.75-38.97,2.96-18.43-4.26-40.78-22.09-46.32,19.46-40.82,19.2-87.81,21.06-133,1.43-34.81,3.95-71.57-11.9-102.59-13.26-25.95-38.78-44.83-67.05-51.88-18.96-4.72-39.01-4.28-57.93.38-5.51,1.35-10.93,3.07-16.22,5.12-5.13,1.98-10.58,4.03-15.19,7.06-43.14,28.37-27.78,97.08-46.47,145.21-4.14,10.65-7.18,21.72-9.17,32.97-.71,4.02-1.28,8.07-1.72,12.12-.7,6.14-1.1,12.31-1.26,18.48-.12,4.64-.87,10.27.23,14.8.53,2.16,1.58,4.27,1.58,6.37,0,1.25-.38,2.5-1.48,3.75-.86.97-2.09,1.57-3.35,1.88-2.47.62-4.58.16-6.96,1.23-2.2.99-4.25,2.3-6.12,3.82-3.34,2.7-6.12,6.06-8.37,9.72"/>
    </g>
    <g id="_입" data-name="입">
      <g>
        <path class="cls-2" d="M187.61,225.2c-3.91-1.28-7.07-.73-10.73.95-4.58,2.1-3.15,7.94,0,10.36,3.93,3.02,8.56,4.35,13.49,4.22,6.25-.17,7.77-7.82,3.03-11.18-6.93-4.91-15.26-6.23-23.48-4.41-5.36,1.19-5.45,8.27-1.43,10.97,3.56,2.39,7.48,3.47,11.76,3.35,6.84-.19,8.04-9.69,1.6-11.79-4.49-1.46-9.14-2.01-13.6-3.68l-1.6,11.79c7.08-.86,14.13-.1,21.14,1.02,6.64,1.07,13.47,2.49,19.13,6.32,5.05,3.42,7.4,8.59,9.97,13.92,2.82,5.88,6.52,10.75,10.92,15.54l5.84-10.03c-5.52-1.97-10.98-3.36-16.74-4.44-6.55-1.23-12.4-3.47-18.36-6.43-5.22-2.59-10.31-5.43-15.2-8.6s-10.04-6.26-13.01-11.07l-5.18,9.03c6.27.09,12.96,2.42,18.99,4.06s12.31,3.61,18.05,6.44c4.32,2.13,9.48,4.99,13.24.13,3.31-4.29,0-9.46-3.51-12.31-5.89-4.78-24.35-11.87-28.4-1.54s12.01,18.8,19.89,20.9c7.67,2.05,10.14-8.72,3.19-11.57-6.17-2.53-12.44-4.72-18.84-6.57-7.45-2.16-10.52,9.23-3.19,11.57,4.54,1.45,9.09,2.91,13.63,4.36,4.15,1.33,9.35,2.16,13.16,4.3l-2.76-3.59.25.86,5.79-7.6c-12.35.72-24.31-1.71-35.28-7.49-5.69-3-12.91,5.06-7.27,9.42,12.25,9.49,26.55,14.33,41.22,18.76,7.41,2.24,10.58-9.34,3.19-11.57-12.47-3.77-25.47-7.57-35.93-15.68l-7.27,9.42c12.77,6.73,26.9,9.97,41.33,9.13,3.82-.22,6.91-3.66,5.79-7.6-1.68-5.88-8.49-6.58-13.57-8.2-6.36-2.04-12.72-4.07-19.08-6.11l-3.19,11.57c6.4,1.86,12.67,4.04,18.84,6.57l3.19-11.57c-2.34-.62-4.48-1.42-6.55-2.67-1.15-.69-2.21-1.45-3.21-2.33-2-1.76-1.34-2.88-3.46.34s-1.38,2.15,1.17,2.49c1.46.19,2.9.52,4.3.97,1.16.38,2.3.81,3.39,1.38.7.37,2.33,2.02,2.48.71l2.97-5.18c2.7-.44,2.88-1,.56-1.67-1.08-.53-2.17-1.03-3.27-1.51-1.57-.69-3.16-1.35-4.76-1.98-3.65-1.42-7.38-2.61-11.14-3.67-7.65-2.17-15.94-4.85-23.93-4.97-4.48-.07-7.57,5.17-5.18,9.03,6.62,10.69,20.08,17.65,30.96,23.18,6.11,3.11,12.44,6.15,19.16,7.7s13.64,2.77,20.37,5.16c5.98,2.13,9.61-5.92,5.84-10.03-9.41-10.26-12.1-24.71-24.63-32.17-6.3-3.75-13.5-5.56-20.68-6.7-8.05-1.29-16.19-2.45-24.33-1.45-6.69.82-8.19,9.31-1.6,11.79,4.46,1.68,9.11,2.22,13.6,3.68l1.6-11.79c-2.32.06-3.78-.42-5.7-1.71l-1.43,10.97c5.23-1.16,9.92.15,14.23,3.2l3.03-11.18c-3.04.08-5.06-.76-7.43-2.58v10.36l1.48.26c7.36,2.4,10.51-9.18,3.19-11.57h0Z"/>
        <path class="cls-4" d="M171.67,204.54l-1.47-5.04c-.88-3.01-4.27-5.2-7.38-4.19s-5.13,4.15-4.19,7.38l1.47,5.04c.88,3.01,4.27,5.2,7.38,4.19s5.13-4.15,4.19-7.38h0Z"/>
        <path class="cls-4" d="M170.46,217.51c1.74-3.81,4.14-7.82,3.7-12.15s-3.89-8.12-8.41-8.49-7.76,2.95-8.87,7.13c-1.45,5.48-1.95,11.42-2.9,17.02-1.28,7.58,8.92,10.53,11.57,3.19.9-2.5,1.81-5,2.71-7.5.53-1.46,1-4.56,2.4-5.46s4.15.12,5.51.34c2.32.38,4.57.75,6.93.81,6.83.17,8.06-9.95,1.6-11.79-5-1.42-10-2.84-15-4.26l-3.19,11.57c6.12,1.1,12.09,2.65,17.97,4.67l1.6-11.79c-6.66.56-19.63-.61-21.38,8.33-1.98,10.15,11.73,12.45,18.8,13.42l1.6-11.79c-6.27-.12-12.54-.36-18.81-.72-7.79-.45-7.57,11.28,0,12,4.78.46,10.64,1.68,15.28,0,1.96-.71,3.64-1.98,4.7-3.8,1.48-2.53.14-4.62,1.03-6.96l-2.76,3.59c-1.59.1-1.45.19.4.27l1.97.27c2.3.29,4.6.63,6.9.94,4.27.58,8.55,1.16,12.82,1.75,7.46,1.02,10.74-9.06,3.19-11.57s-14.64-4.44-22.13-6.07-10.71,9.61-3.19,11.57c6.27,1.64,12.34,3.31,17.84,6.84l3.03-11.18c-6.27.21-12.54.41-18.81.62-6.69.22-8.24,9.9-1.6,11.79,10.95,3.11,21.91,6.22,32.86,9.33l3.19-11.57c-5.85-1.35-11.22-3.42-16.42-6.41l-3.03,11.18c3.37-.05,6.03-1.07,8.99-2.66,3.92-2.1,6.18-1.43,10.32.12l3.19-11.57c-5.88-1.13-11.36-1.8-17.32-.89-5.52.84-5.27,8.41-1.43,10.97,10.44,6.95,22.44,10.62,34.96,10.98,7.19.21,7.57-9.49,1.6-11.79-6.94-2.67-13.96-5.11-21.05-7.33v11.57c4.16-1.2,9.9.88,14.08,1.62,5.1.91,10.2,1.82,15.33,2.5,2.44.32,4.89.61,7.35.77,2.14.15,6.41,1.11,8.3.14,1.41.12,1.27-.18-.42-.91-1.11-1.28-1.58-1.28-1.39,0-.42.61-.23,2.82-.33,3.6-.35,2.65-.92,5.28-1.64,7.85-.57,2.03-1.1,4.78-2.29,6.55-1.35,2.02-2.09.87-3.99-.49-3.91-2.79-7.6-5.83-11.63-8.47-8.36-5.46-17.27-9.86-26.54-13.55-6.43-2.56-10.34,7.62-4.62,10.97,4,2.34,7.99,4.68,11.99,7.01,3.26,1.91,7.24,5.15,11.01,5.89,8.42,1.65,10.12-10.72,12.1-16.24,1.15-3.23-1.33-6.33-4.19-7.38-3.37-1.24-6.38-1.21-9.9-.68-6.4.97-4.95,9.8,0,11.57,11.85,4.23,24.02,7.24,36.48,9.01,7.46,1.06,10.75-9.13,3.19-11.57-9.51-3.07-19.38-4.54-29.37-4.42-6.69.08-8.24,10.03-1.6,11.79,7.59,2,25.15,6.69,25.46-5.95h-12c.1,3.53.2,7.06.29,10.58.2,7.14,9.35,7.67,11.79,1.6,2.42-6.04.89-14.68-4.92-18.42-6.98-4.48-12.39,4.36-15.18,9.57l10.97,4.62c.3-.83.73-1.58,1.27-2.27l-10.24-4.24c-.01,1.9-.02,3.8-.04,5.7,0,1.23-.58,3.78-.03,4.75-.27,1.39.21,1.39,1.46,0h-1.29c-1.37-.63-2.7-.84-4.07-1.59-4.94-2.72-8.79-6.4-14.23-8.29-4.68-1.62-9.91,4.62-6.78,8.81,5.2,6.95,9.56,14.35,13.12,22.28l9.42-7.27c-3.45-4.17-6.9-8.34-10.35-12.51-4.32-5.22-13.25,1.65-9.42,7.27,3.27,4.81,6.77,9.46,10.54,13.89,3.26,3.84,7.24,7.46,12.43,4.47,8.16-4.7,9.26-19.21-1.61-21.18-4.22-.76-7.05,1.7-7.6,5.79-1.18,8.93,11.78,20.54,19.14,11.9,1.3-1.52,1.9-3.02,3.48-4.35,1.8-1.52,3.53-2.76,4.95-4.68,3.03-4.07,3.6-9.1,5.85-13.51l-10.97-4.62c-1.3,4.9-2.73,10.2-6.07,14.16-3.45,4.1-9.17,4.72-13.08,8.34-5.69,5.25,2.82,13.72,8.49,8.49,2.23-2.06,5.72-2.57,8.25-4.24s4.79-3.86,6.64-6.38c3.72-5.05,5.74-11.16,7.34-17.17,1.7-6.4-7.8-10.84-10.97-4.62-2.31,4.52-2.8,10.54-6.69,14.01-1.91,1.71-3.94,2.96-5.43,5.1l-.7,1.07c-1.2,1.92-.17,1.67,3.08-.75-.31-1.56-1.64-.32-1.32-2.73l-7.6,5.79c-.46-1.34-1.1-1.47-1.93-.38l4.62-.6c1.12.33-1.41-1.87-1.84-2.37-.95-1.12-1.89-2.26-2.81-3.41-2.06-2.6-3.98-5.31-5.85-8.05l-9.42,7.27c3.45,4.17,6.9,8.34,10.35,12.51,4.68,5.66,11.99-1.56,9.42-7.27-3.55-7.92-7.91-15.33-13.12-22.28l-6.78,8.81c8.5,2.95,13.75,11.17,23.74,10.21,3.79-.36,7.76-2.04,9.07-5.91,1.64-4.86.55-11.36.58-16.44s-6.86-8.42-10.24-4.24c-1.94,2.4-3.27,4.67-4.36,7.57-2.4,6.39,7.78,10.55,10.97,4.62.89-1.66,2.15-4.66,3.83-5.74h-6.06c1.94.94.95,3.96.39,5.34l11.79,1.6c-.1-3.53-.2-7.06-.29-10.58-.21-7.72-11.81-7.73-12,0l-.03,1.15,1.76-4.24c1.61-.59,1.34-.78-.83-.59-1.31-.08-2.62-.21-3.93-.38-2.45-.34-4.85-.93-7.24-1.56l-1.6,11.79c9.01-.1,17.61,1.23,26.18,4l3.19-11.57c-12.46-1.77-24.63-4.78-36.48-9.01v11.57c1.24-.13,2.42.09,3.52.68l-4.19-7.38c-.66,1.84-1.32,3.69-1.98,5.53-.24.66-1.07,3.77-1.2,3.87l5.84-1.54c-3.37-.92-6.83-3.91-9.85-5.68-3.43-2-6.85-4.01-10.28-6.01l-4.62,10.97c12.69,5.05,23.85,12.23,34.74,20.37,4.75,3.55,10.89,5.77,16.32,2.17s7.18-10.99,8.61-16.67,3.6-14.02,1.28-19.39c-2.69-6.24-10.65-4.41-15.98-4.66-7.5-.36-14.87-1.81-22.25-3.11-6.16-1.09-13.35-3.24-19.54-1.46-5.79,1.67-5.61,9.82,0,11.57,7.1,2.22,14.11,4.66,21.05,7.33l1.6-11.79c-10.49-.31-20.18-3.54-28.91-9.34-.48,3.66-.96,7.31-1.43,10.97,3.66-.56,7.37.2,10.94.89,7.63,1.47,10.42-8.87,3.19-11.57-4.08-1.52-8.29-2.72-12.66-1.8-3.32.7-6.55,3.86-9.84,3.91-5.88.08-8.26,8.18-3.03,11.18,6.05,3.48,12.49,6.05,19.29,7.62,7.51,1.73,10.65-9.45,3.19-11.57-10.95-3.11-21.91-6.22-32.86-9.33l-1.6,11.79c6.27-.21,12.54-.41,18.81-.62s8.06-7.95,3.03-11.18c-6.33-4.07-13.48-6.17-20.71-8.05l-3.19,11.57c7.49,1.63,14.85,3.66,22.13,6.07l3.19-11.57c-5.26-.72-10.52-1.43-15.78-2.15-4.26-.58-9.81-2.37-13.98-.72-2.82,1.11-6.67,5.97-4.75,9.25-.01,1.36.41,1.14,1.27-.68,1.52-1.14,1.72-1.63.59-1.47-.44-.34-2.56-.09-3.16-.12-2.58-.14-5.15-.35-7.73-.6v12c6.26.36,12.53.6,18.81.72s8.42-10.85,1.6-11.79c-2.5-.34-4.97-.77-7.41-1.42l-1.81-.52c-2.84-1.58-3.74.04-2.69,4.85.54.21,3.67-.44,4.15-.48,2.38-.2,4.76-.4,7.15-.61,6.71-.57,8.18-9.53,1.6-11.79-5.88-2.02-11.85-3.57-17.97-4.67-7.49-1.35-10.74,9.43-3.19,11.57,5,1.42,10,2.84,15,4.26l1.6-11.79c-6.66-.16-13.12-3.14-19.32.96s-7.55,13.42-9.8,19.65l11.57,3.19c.77-4.57,1.54-9.13,2.32-13.7.15-.91.31-1.83.46-2.74.98-2.83-1.05-3.25-6.09-1.26-.93,1.01-1.54,3.65-2.13,4.95-3.19,6.97,7.15,13.08,10.36,6.06h0Z"/>
        <path id="_입-2" data-name="입" class="cls-14" d="M166.08,194.57c-1.65-.38-3.46-.73-4.97.03-1.27.65-2.04,1.96-2.68,3.23-6.64,13.36-4.81,30.02,2.89,42.8,7.69,12.78,20.62,21.87,34.66,26.92s29.17,6.34,44.09,6.06c7.85-.15,16.05-.83,22.74-4.93,8.27-5.08,12.88-14.72,14.18-24.33s-.25-19.36-1.81-28.94c-.15-.99-24.94-2.28-27.4-2.51-8.45-.77-16.3-3.46-24.62-5.35-19.02-4.32-38.05-8.65-57.07-12.97Z"/>
      </g>
      <path class="cls-8" d="M171.86,249.94s-3.59-5.71,5.11-10.88,20.31-2.25,22.98-1.58,18.7,3.79,23.3,8.11c4.6,4.32,6.26,11.67,8.18,15.49s.61,10.55.61,10.55h8.88l-10.65-15.47-4.78-12.36-13.71-14.47-25.87-6.8h-17.39l-7.73,6.31.54,6.52s.69,2.04,3.96,6.92,6.56,7.65,6.56,7.65Z"/>
      <path id="_혀" data-name="혀" class="cls-14" d="M158.98,234.8c1.02-3.95,2.36-9.46,6.19-11.5,3.13-1.67,6.87-1.54,10.42-1.38,8.05.38,16.17.77,23.97,2.8s15.36,5.85,20.51,12.06c9.75,11.74,10,29.45,24.87,36.97"/>
    </g>
    <g>
      <path class="cls-11" d="M199.15,155.62c.71,4.39.04,8.86-.63,13.25-.47,3.01-.94,6.07-2.23,8.83s-3.52,5.23-6.45,6.07c-4.34,1.25-9.09-1.5-11.36-5.41s-2.54-8.66-2.22-13.17c.38-5.53,1.56-11,3.48-16.2,5.41-14.66,17.71-3.85,19.41,6.63Z"/>
      <path class="cls-14" d="M179.74,148.99c-1.92,5.2-3.1,10.67-3.48,16.2-.32,4.51-.05,9.26,2.22,13.17s7.02,6.66,11.36,5.41c2.93-.84,5.16-3.31,6.45-6.07s1.76-5.82,2.23-8.83c.67-4.39,1.34-8.86.63-13.25-1.7-10.48-14-21.29-19.41-6.63Z"/>
    </g>
    <g>
      <path class="cls-11" d="M275.85,174.77c1.08,5.25.44,10.68-.26,16-.45,3.47-1.07,7.22-3.62,9.62-2.85,2.69-7.53,2.79-10.94.86s-5.62-5.53-6.67-9.3c-1.06-3.77-1.07-7.75-.97-11.67.11-4.48.41-9.16,2.72-13.01,6.9-11.47,17.84-1.71,19.74,7.5Z"/>
      <path class="cls-14" d="M256.11,167.27c-2.31,3.85-2.61,8.53-2.72,13.01-.1,3.92-.09,7.9.97,11.67,1.05,3.77,3.26,7.37,6.67,9.3s8.09,1.83,10.94-.86c2.55-2.4,3.17-6.15,3.62-9.62.7-5.32,1.34-10.75.26-16-1.9-9.21-12.84-18.97-19.74-7.5Z"/>
    </g>
    <g>
      <g id="_팔색칠" data-name="팔색칠">
        <path class="cls-10" d="M66.06,47.95l-2.31-4.78c-.63-1.29-2.24-2.39-3.59-2.76-1.44-.4-3.35-.22-4.62.6-2.91,1.87-3.62,5.18-2.15,8.21l2.31,4.78c.63,1.29,2.24,2.39,3.59,2.76,1.44.4,3.35.22,4.62-.6,2.91-1.87,3.62-5.18,2.15-8.21h0Z"/>
        <path class="cls-10" d="M73.52,39.52c-13.28,5.04-23.94,15.08-27.1,29.37-1.59,7.18.53,14.35,6.45,18.92,5.32,4.11,14.13,5.52,19.99,1.41,10.98-7.69,17.83-18.6,18.56-32.19.9-16.53-12.58-27.67-28.31-27.63-22.67.06-43.28,16.53-49.11,38.26-2.73,10.19,5.42,24.19,17.36,22.79,16.85-1.98,32.92-10.76,40.18-26.85,5.25-11.64,3.96-25.91-8.47-32.49-6.93-3.67-16.23-5.22-24-4.75-10.41.63-20.19,5.1-25.77,14.26-4.16,6.83-5.62,15.44-6.99,23.2-2.92,16.51-4.05,33.3-2.58,50.02,1.64,18.53,5.53,36.67,12.43,53.96l32.9-13.87c-1.34-2.31-2.53-4.66-3.7-7.06-.52-1.15-.49-1.07.09.22l-.62-1.66c-.44-1.41-.95-2.8-1.36-4.22-.75-2.56-1.32-5.15-1.82-7.76-.24-1.27-.24-2.42-.09-.48-.14-1.77-.28-3.53-.35-5.3-11.18,3.03-22.36,6.06-33.54,9.08,7.12,10,13.56,20.45,19.19,31.36,1.37,2.66,2.7,5.34,3.97,8.05.64,1.35,1.27,2.71,1.88,4.07.16.36,1.96,4.45,1.25,2.79-.64-1.5,1.2,2.94,1.15,2.83.56,1.39,1.1,2.78,1.63,4.18,1.17,3.08,2.26,6.18,3.32,9.3l30.08-17.51c-6.47-7.16-12.93-14.32-19.4-21.49-6.01-6.66-16.9-6.61-23.63-1.41-7.43,5.74-8.58,15.01-4.64,23.22,8.07,16.78,18.09,32.27,29.59,46.89,6.24,7.93,12.86,15.95,22.86,19.16,5.25,1.68,10.7,1.73,15.97.12,3.84-1.17,7.28-3.43,10.08-6.28,1.26-1.53,2.48-3.1,3.66-4.69-3.44,5.05-9.09,6.06-16.93,3.03l-6.46-6.46.52.89c6.21,10.69,25.48,12.76,31.08,0,4.25-9.68,6.5-19.54,5.66-30.19-.78-9.94-3.07-19.57-5.58-29.18-4.89-18.72-8.68-37.68-11.32-56.85-1.02-7.42-10.25-13.53-17.36-13.21-8.05.36-15.04,5.35-17.36,13.21-5.46,18.51-9.97,37.26-13.52,56.23,11.79,1.6,23.57,3.19,35.36,4.79.14-36.46-2.65-72.73-7.73-108.82-1.24-8.83-11.89-13.95-19.75-12.89-8.81,1.18-15.53,8.65-15.61,17.68-.21,25.2,1.89,50.23,5.72,75.12,1.06,6.89,8.69,12.05,14.96,12.89s15.05-2.13,17.94-8.59c6.52-14.62,10.06-30.11,8.53-46.19-.86-9.01-6.2-16.41-15.61-17.68-7.97-1.07-18.42,4.03-19.75,12.89-5.03,33.57-4.38,66.97,2.5,100.26,1.53,7.39,9.88,13.55,17.36,13.21s16.23-5.28,17.36-13.21c3.61-25.55.95-50.94,2.49-76.56.14-2.36.33-4.72.58-7.07.17-1.66.41-3.33.03-.71.19-1.31.39-2.61.62-3.91.85-4.91,1.99-9.78,3.5-14.53.39-1.24.82-2.47,1.26-3.69.53-1.46,1.24-3.1.21-.74,1.03-2.35,2.18-4.66,3.45-6.89,1.14-2.01,2.51-3.87,3.72-5.83,1.04-1.69-1.74,1.81.5-.62,1.05-1.14,2.07-2.31,3.15-3.43-10.24-4.24-20.49-8.49-30.73-12.73-4.11,35.7-6.19,71.59-6.25,107.53h36c-1.12-34.74-2.25-69.48-3.37-104.22-.31-9.47-.01-19.37-5.44-27.62-5.96-9.05-15.92-12.92-26.27-14.07-7.52-.83-14.83.25-22.29,1.19-3.95.5-7.93.96-11.92.87-.91-.02-5.17-.96-1.89-.03-1.11-.22-2.2-.5-3.28-.84,4.65,1.31,7.26,5.02,7.82,11.14l-2.46,9.08c-.49,1.06-6,3.99-2.47,2.67,1.32-.49,2.67-1.26,3.94-1.87,2.59-1.24-2.2.7.53-.2,1.38-.45,2.72-1.03,4.1-1.5,4.68-1.59,9.48-2.85,14.34-3.78,1.43-.27,2.86-.53,4.3-.73-1.93.27-.93.12.41,0,2.61-.22,5.22-.41,7.84-.46s5.24-.02,7.85.12c1.16.06,2.32.14,3.48.24.51.04,5.17.75,2.62.26-2.19-.42.8.31,1.17.32,1.41.05-1.17-.71-1.87-1.26-1.86-1.47-3.4-7.35-2.69-3.36.18.98.44,1.96.63,2.94.3,1.57.54,3.16.79,4.74.5,3.16-.25-2.25.13.93.34,2.86.61,5.74.81,8.61.78,11.53.36,23.07-1.09,34.53-.88,6.93,5.26,14,11.06,16.45,6.2,2.61,15.02,1.72,19.66-3.72,14.38-16.88,20.28-38.58,15.6-60.38-4.95-23.01-26.23-43.32-50.89-37.22-15.28,3.78-17.3,25.14-4.3,32.9,2.13,1.27,4.13,2.71,6.22,4.04,1.61,1.03-1.48-1.41.91.73,1.02.92,2.07,1.8,3.08,2.74,1.8,1.69,3.53,3.46,5.17,5.32.73.83,1.43,1.67,2.13,2.52-2.25-2.73.94,1.43,1.1,1.66,7.77,11.27,23.43,11.88,31.08,0,1.94-3.01,3.87-6.01,5.81-9.02l-31.08-18.17c-16.4,26.46-25.11,57.3-25.28,88.42-.05,9.42,8.32,18.43,18,18s17.94-7.91,18-18c.02-3.49.12-6.97.37-10.45.12-1.74.32-3.47.46-5.21.28-3.37-.2.75.13-1.26,1.07-6.61,2.39-13.13,4.24-19.57.88-3.07,1.87-6.11,2.94-9.12.49-1.37,1.02-2.72,1.52-4.08,1.42-3.86-.68,1.29.87-2.13,2.89-6.36,6.14-12.5,9.82-18.44,4.97-8.01,1.98-20.17-6.46-24.63-8.94-4.72-19.18-2.01-24.63,6.46-1.94,3.01-3.87,6.01-5.81,9.02h31.08c-8.41-12.2-18.75-22.31-31.51-29.92-1.43,10.97-2.87,21.93-4.3,32.9,4.13-1.02-2.9-.09.88.04-2.47-.36-2.69-.3-.67.19l-1.67-.73c1.27.67,3.6,2.36,1.26.43,1.18.98,2.2,2.09,3.26,3.19-2.54-2.64.31.47.82,1.32.74,1.22,1.96,4.11.83,1.15.53,1.4.99,2.84,1.37,4.3.14.53,1.15,5.98.82,3.5s.1,2.29.11,2.84c.04,1.51.01,3.01-.09,4.51-.04.75-.1,1.5-.19,2.25.29-2.05.33-2.4.09-1.06-.39,1.45-.61,2.95-1.01,4.4s-.95,2.85-1.4,4.29c-.47,1.22-.34.94.37-.83-.31.68-.65,1.36-1,2.02-.7,1.33-1.45,2.63-2.27,3.89-.4.63-.82,1.26-1.27,1.86,1.31-1.64,1.31-1.68,0-.12,10.24,4.24,20.49,8.49,30.73,12.73,1.62-12.73,1.95-25.57.78-38.36-1.26-13.91-2.06-31.57-15.32-39.79-10.06-6.24-24.39-6.37-35.92-5.83-12.58.59-25.33,2.87-37.13,7.34-5.47,2.07-11.47,4.22-16.35,7.54-9.54,6.48-13.51,18.86-7.74,29.25,7.33,13.21,24.74,15.25,38.28,13.92,5.45-.54,10.86-1.52,16.32-1.9,2.29-.16,4.56-.08,6.85-.11,4.72-.06-2.38-1.21,1.3.2,3.32,1.27-2.2-2.21.74.23-1.09-.91-1.98-1.4-2.69-2.77-.26-.49-.72-4.31-.62-2,.12,2.79.22,5.59.31,8.39.21,6.55.42,13.11.64,19.66.93,28.84,1.86,57.68,2.8,86.52.3,9.4,8.06,18.45,18,18s17.98-7.91,18-18c.06-35.94,2.14-71.83,6.25-107.53.8-6.96-5.19-13.97-11.06-16.45-6.51-2.75-14.62-1.49-19.66,3.72-17.52,18.12-24.63,42.07-27.06,66.6-1.19,12.02-.91,24.12-.71,36.17.11,6.69.22,13.37.07,20.06-.07,3.17-.2,6.35-.41,9.52-.11,1.58-.23,3.17-.38,4.75-.05.57-.7,5.78-.27,2.78h34.71c-.77-3.72-1.48-7.45-2.1-11.21-.31-1.87-.6-3.75-.86-5.64.33,2.47-.1-.94-.2-1.81-.82-7.24-1.34-14.51-1.54-21.79s-.1-13.94.28-20.9c.21-3.79.5-7.58.88-11.37.19-1.89.4-3.78.63-5.67.45-3.71-.21,1.3.4-2.74-11.79-1.6-23.57-3.19-35.36-4.79.27,2.87.44,5.74.39,8.63-.02,1.44-.1,2.88-.21,4.32-.05.7-.69,4.47-.07,1.22-.48,2.55-.98,5.09-1.68,7.6-.39,1.39-.81,2.77-1.28,4.13-.22.65-2.12,5.16-.76,2.12,10.97,1.43,21.93,2.87,32.9,4.3-.2-1.29-.4-2.58-.59-3.88,0,.03-.65-4.68-.49-3.44s-.26-2.12-.3-2.47c-.16-1.3-.31-2.6-.45-3.9-.65-5.85-1.18-11.71-1.59-17.58-.8-11.42-1.11-22.85-1.01-34.3-11.79,1.6-23.57,3.19-35.36,4.79.18,1.3.37,2.6.54,3.9-.16-1.21-.16-1.18,0,.1.29,2.28.58,4.56.85,6.84.47,3.91.9,7.83,1.31,11.74.87,8.49,1.6,16.99,2.16,25.51,1.13,17.03,1.64,34.1,1.57,51.17-.03,8.98,6.88,16.51,15.61,17.68,8.21,1.1,18.1-4.07,19.75-12.89,3.55-18.97,8.06-37.72,13.52-56.23h-34.71c2.39,17.3,5.67,34.47,9.93,51.42,1.93,7.68,4.02,15.28,5.48,23.06.79,4.21.1-1.9.22,1.98.06,2.23.13,4.45.15,6.69.04,4.74.92-2.83-.13,1.76-.16.71-2.19,6.8-.77,3.57h31.08c-7.77-13.39-26.14-13.51-35.68-2.2-3.2,4.14-3.75,4.86-1.65,2.14,2.98-2.57,6.4-3.45,10.29-2.65l1.68.75c-1.68-1.08-1.71-1-.09.23-3.18-2.57-5.7-6.1-8.24-9.27-.55-.68-1.1-1.37-1.64-2.07,1.02,1.32.9,1.14-.39-.55-1.38-1.89-2.78-3.78-4.12-5.7-2.35-3.36-4.62-6.78-6.79-10.26-4.66-7.46-8.86-15.18-12.67-23.1-9.42,7.27-18.85,14.54-28.27,21.81,6.47,7.16,12.93,14.32,19.4,21.49,11.86,13.14,35.82-.6,30.08-17.51-8.58-25.31-20.51-49.39-36.02-71.17-4.51-6.33-12.31-10.87-20.33-8.27-7.35,2.38-13.55,9.24-13.21,17.36.64,15.73,4.84,30.8,12.76,44.43,4.52,7.77,14.33,10.8,22.48,7.36,7.5-3.17,13.76-12.88,10.42-21.23-2.64-6.62-4.92-13.37-6.74-20.26-.91-3.44-1.71-6.91-2.4-10.41-.35-1.75-.67-3.5-.96-5.26-.03-.16-.82-5.79-.38-2.26-1.77-14.14-1.78-28.49-.04-42.63-.39,3.17.27-1.6.38-2.26.29-1.76.61-3.51.96-5.25.67-3.36,1.79-6.71,2.34-10.08s-1.72,1.7.37-1.02c-1.35,1.76-2.3,2.78-4.49,3.63,3.13-1.21-3.18-.48.56-.11,1.41.14,2.84.11,4.25.24-3.07-.29-1.1-.13.79.3l1.26.29c6.66,2.29,4.12-2.62-7.62-14.73-.18-.08,1.68-3.16-.32.24-.36.63-.75,1.24-1.17,1.84,1.22-1.51,1.41-1.78.56-.8-.37.33-3.62,3.68-1.88,2.06s-1.81,1.14-2.37,1.46c-.63.37-1.27.7-1.93,1.01,1.86-.75,2.17-.91.93-.47-.98.18-6.21,1.25-1.59.7,5.79,7.6,11.57,15.19,17.36,22.79.01-.05,1.18-4.41.42-1.9-.72,2.37.61-1.17.91-1.7.43-.76,3.08-4.08.41-1.03.63-.72,1.24-1.44,1.9-2.12.5-.52,4.03-3.42.65-.93.77-.56,1.55-1.1,2.36-1.6,1.22-.76,2.48-1.39,3.76-2.03-2.14,1.06-1.54.63.36.08,1.14-.33,2.29-.55,3.45-.81-2.32.51-2.04.22.17.21,1.46,0,3.7.85-.12-.14-3.32-.86-7-8.08-7.33-8.07-.17-1.14-.24-1.2-.24-.16-.08,1.36-.05.98.11-1.14-.92,3.2,1.11-1.18,0,.53-.94,1.45-1.67,2.48-.06.64-.68.77-3.97,3.29-.79,1.06,8.81,6.78,17.63,13.55,26.44,20.33.28-1.28,1.84-4.32.01-1.19.57-.98,2.93-3.77.39-1.19.75-.76,3.96-3.2.68-1.05.89-.58,4.7-2.24.87-.79,8.78-3.33,15.76-12.29,12.57-22.14-2.77-8.57-12.72-16.15-22.14-12.57h0Z"/>
        <path class="cls-10" d="M111.65,98.1c-2.39,4.58-4.2,9.42-5.23,14.49-.64,3.17.92,6.48,4.19,7.38,2.96.81,6.73-1,7.38-4.19.83-4.08,2.1-7.93,4.02-11.62,3.57-6.84-6.79-12.91-10.36-6.06h0Z"/>
        <path class="cls-10" d="M123.95,16.18l-1.33-.64c-.69-.44-1.43-.68-2.23-.71-.8-.18-1.6-.14-2.39.11-.78.19-1.46.54-2.04,1.07-.65.42-1.17.98-1.55,1.68l-.6,1.43c-.29,1.06-.29,2.13,0,3.19l.6,1.43c.53.9,1.25,1.62,2.15,2.15l1.33.64c.69.44,1.43.68,2.23.71.8.18,1.6.14,2.39-.11.78-.19,1.46-.54,2.04-1.07.65-.42,1.17-.98,1.55-1.68l.6-1.43c.29-1.06.29-2.13,0-3.19l-.6-1.43c-.53-.9-1.25-1.62-2.15-2.15h0Z"/>
        <path class="cls-10" d="M15.04,173.39v.2c-.03.83.14,1.6.52,2.31.24.74.66,1.39,1.24,1.93.54.59,1.19,1,1.93,1.24.72.38,1.49.55,2.31.52l1.6-.21c1.02-.29,1.9-.8,2.65-1.54l.94-1.21c.54-.94.82-1.95.82-3.03v-.2c.03-.83-.14-1.6-.52-2.31-.24-.74-.66-1.39-1.24-1.93-.54-.59-1.19-1-1.93-1.24-.72-.38-1.49-.55-2.31-.52l-1.6.21c-1.02.29-1.9.8-2.65,1.54l-.94,1.21c-.54.94-.82,1.95-.82,3.03h0Z"/>
        <path class="cls-10" d="M39.81,59.71c15.44,0,15.47-24,0-24s-15.47,24,0,24h0Z"/>
        <path class="cls-10" d="M39.83,47.86c-.59,16.7-1.19,33.41-1.15,50.12.03,15.01-.62,30.8,5.53,44.81,3.1,7.06,13.44.95,10.36-6.06-5.6-12.75-3.94-29.11-3.89-42.69.05-15.4.6-30.8,1.15-46.19.27-7.72-11.73-7.71-12,0h0Z"/>
      </g>
      <path class="cls-7" d="M7.79,59.06s-4.48,33.67,23.15,97.24c27.63,63.58,65.4,89.54,65.4,89.54l-19.98,6.28-36.55-40.88-22.71-35.64-14.05-43.87-.09-52.89,4.84-19.77Z"/>
      <path id="_오른손" data-name="오른손" class="cls-14" d="M44.84,216.07c-14.04-17.13-27.26-35.43-34.62-56.33C.16,131.14,1.78,99.87,4.81,69.7c1.39-13.79,3.44-28.5,12.64-38.88,3.86-4.36,8.66-7.57,13.89-10.12,6.07-2.96,12.72-5.02,19.2-6.95,13.41-3.99,27.11-7.91,41.09-7.6s28.55,5.49,36.97,16.66c6.31,8.36,8.55,19.08,9.55,29.5.88,9.13.91,18.55-2.08,27.23-3.01,8.73-8.87,16.15-13.09,24.37-7.91,15.4-9.84,33.22-9.32,50.52s3.35,34.45,4.39,51.73c.57,9.47.44,19.55-4.53,27.63-5.37,8.72-24.93,20.74-35.77,17.91-5.59-1.46-11.97-11.45-15.79-15.69-5.86-6.51-11.58-13.16-17.13-19.94Z"/>
      <path id="_오른손_엄지" data-name="오른손 엄지" class="cls-14" d="M116.91,60.17c-8.68,1.81-17.57,2.35-26.28,4.01s-17.45,4.56-24.15,10.36c-8.31,7.19-12.68,18.69-11.24,29.59.65,4.92,2.58,9.92,6.49,12.99,10.19,7.99,26.17-1.3,37.75,4.48"/>
    </g>
    <ellipse id="_왼눈알" data-name="왼눈알" class="cls-13" cx="190.55" cy="162.97" rx="5.8" ry="14.04"/>
    <ellipse id="_오른눈알" data-name="오른눈알" class="cls-13" cx="267.57" cy="182.46" rx="5.43" ry="15.51"/>
    <path id="_줄기" data-name="줄기" class="cls-14" d="M193.17,101.65c9.47-21.68,9.9-47.14,1.19-69.14"/>
    <g id="_이파리" data-name="이파리">
      <g>
        <path class="cls-1" d="M286.03,64.23c3.09.86,14.5,6.98,17.14,6.12-11.97,3.9-23.24,9.66-34.95,14.28-1.76.69-3.54,1.36-5.33,1.99l-.48.09c-7.29.29-37.6-2.25-43.76-5.23-7.92-3.83-12.97-12.57-12.97-12.57l-1.94,5.25,3.9,8.68,16.78,7.82-.02.11c-9.09-1.95-20.21-6.58-21.13-15.3-1.23-11.77,17.02-12.91,25.29-14.28,12.53-2.08,25.37-2.35,37.98-.82,6.58.79,13.1,2.08,19.49,3.86Z"/>
        <path class="cls-5" d="M262.89,86.62l1.1-.2c-.02.14-.48.23-1.31.27.07-.02.14-.04.21-.07Z"/>
        <path class="cls-5" d="M262.89,86.62c-.07.03-.14.05-.21.07-.08.01-.17.01-.27.02l.48-.09Z"/>
        <path class="cls-1" d="M262.41,86.71c.1-.01.19-.01.27-.02-10.07,3.55-20.62,5.92-31.22,5.13-1.99-.15-4.44-.48-7.06-1.05l.02-.11,18.98-.53,19.01-3.42Z"/>
        <path class="cls-5" d="M262.41,86.71l-19.01,3.42-18.98.53-16.78-7.82-3.9-8.68,1.94-5.25s5.05,8.74,12.97,12.57c6.16,2.98,36.47,5.52,43.76,5.23Z"/>
      </g>
      <g>
        <path class="cls-14" d="M262.68,86.69c-10.07,3.55-20.62,5.92-31.22,5.13-1.99-.15-4.44-.48-7.06-1.05-9.09-1.95-20.21-6.58-21.13-15.3-1.23-11.77,17.02-12.91,25.29-14.28,12.53-2.08,25.37-2.35,37.98-.82,6.58.79,13.1,2.08,19.49,3.86,3.09.86,14.5,6.98,17.14,6.12-11.97,3.9-23.24,9.66-34.95,14.28-1.76.69-3.54,1.36-5.33,1.99"/>
        <path class="cls-14" d="M262.68,86.69c.83-.04,1.29-.13,1.31-.27l-1.1.2-.48.09"/>
      </g>
    </g>
  </g>
  <g id="_오른쪽_열매" data-name="오른쪽 열매">
    <g id="_열매_색칠" data-name="열매 색칠">
      <path class="cls-9" d="M176,7.01c-5.99-3.4-12.66-.8-15.99,5.01s-3.98,13.06-2.79,19.81,9.67,4.88,11.57,0c1.07-2.75.35-5.75-1.53-7.98-1.39-1.65-1.46-.73-.93-2.2s2.7-3.23,3.63-4.47c3.95-5.3-3.42-10.48-8.21-8.21-8.66,4.12-6.18,20.68-3.58,27.76l8.81-6.78c-.52-.35,2.44-6.72,2.76-7.38,1.58-3.3,3.32-5.06,6.02-7.44,4.42-3.9,4.18-11.72-2.43-13.17-7.65-1.67-10.33,8.84-3.19,11.57,2.74,1.05,4.86,2.66,6.88,4.75l1.21-9.42c.97-.58,1.47.02-.1-.5-.83-.27-1.89-.38-2.76-.4-2-.05-4,.35-5.69,1.48-3.59,2.39-6.04,7.79-5.6,12.02,1.14,11,18.25,8.17,14.78-2.38-1.26-3.81-7.06-6.46-10.03-2.65-4.96,6.37-7.66,13.3-7.67,21.43l2.97-5.18c-.71.37-1.42.73-2.13,1.1-4.65,2.4-3.39,9.67,1.43,10.97,6.1,1.64,12.52-.04,16.35-5.28,1.77-2.42,2.77-5.24,2.89-8.23s1.53-4.7,2.06-7.59l-11.79-1.6c.12,2.91.56,5.59,1.62,8.3,2,5.13,10.03,6.24,11.57,0,.81-3.26,1.32-6.64,1.13-10.02-.05-.93-.12-4.18-.65-4.97-5.08.13-6.84,1.15-5.27,3.05.38.5.7,1.04.95,1.61,2.62,6.2-3.06,8.88-7.93,10.6-5.9,2.08-5.55,12.68,1.6,11.79,5.61-.7,10.23-3.16,12.79-8.41l-10.97-1.43c.88-2.42.45-3.01-1.27-1.78-.78.3-1.5.7-2.18,1.18-1.54,1.05-2.67,2.32-3.44,4.01-2.04,4.48,1.35,10.43,6.78,8.81,4.88-1.46,9.11-4.06,12.29-8.08,4.75-5.99-3.69-14.54-8.49-8.49-1.95,2.46-3.95,4.08-7,4.99l6.78,8.81c.38-.84,1.69-.95,2.46-1.37,1.44-.78,2.71-1.72,3.77-2.96,2.15-2.51,2.58-5.16,1.86-8.33-1.1-4.85-8.71-6.06-10.97-1.43-.5,1.04-1.09,2.3-2.43,2.47l1.6,11.79c6.09-2.15,12.18-4.8,15.36-10.79,2.93-5.52,2.43-12.65-.58-18.02-2.79-4.98-8.55-9.97-14.26-5.92-2.6,1.84-3.66,4.87-3.53,7.95.17,4.2,1.07,7.48.02,11.75h11.57c-.7-1.8-1.11-3.17-1.19-5.11-.27-6.42-10.51-8.56-11.79-1.6-.52,2.83-2.42,4.93-2.51,8.03-.09,2.85-.17,5.72-4.02,4.69l1.43,10.97c.71-.37,1.42-.73,2.13-1.1,1.85-.96,2.97-3.15,2.97-5.18,0-4.67,1.25-9.21,4.16-12.95l-10.03-2.65.3.91.6-4.62-.49.92,3.59-2.76,4.69,3.95c.78-1.16.79-1.45.03-.88-.67.24-.64.38.09.42.71.19,1.43.3,2.17.35,2.2.18,4.09-.18,6.01-1.33,3.35-2.01,3.92-6.63,1.21-9.42-3.5-3.62-7.49-6.04-12.17-7.83l-3.19,11.57.73.16-3.59-2.76-.4-1.49,1.76-4.24c-2.05,2.65-5.03,4.37-6.99,7.26s-3.42,6.46-4.72,9.8c-2.64,6.76-2.48,13.67,4,18.06,4.18,2.83,10.6-1.92,8.81-6.78-.97-2.64-1.7-5.25-1.82-8.08-.05-1.09-.03-2.22.07-3.31.13-1.3,1.34-3.55-.2-2.82l-8.21-8.21c-2.59,3.48-5.67,6.06-6.1,10.67-.18,1.97.05,3.81.9,5.62.4.86.92,1.64,1.56,2.34,1.27,1.65,1.69,1.29,1.26-1.1h11.57c-.41-2.36-.34-4.72.24-7.04.25-1.01.73-1.93,1.02-2.9.16-.4.38-.77.67-1.1.65-.66.4-.74-.78-.23,6.72,3.82,12.78-6.54,6.06-10.36h0Z"/>
    </g>
    <path id="_열매_명암" data-name="열매 명암" class="cls-3" d="M163.55,2.5s-3.87,12.42,0,23.47c3.87,11.05,11.97,21.86,11.97,21.86l-11.97-4.25-8.25-8.27-1.99-18.82,10.24-13.98Z"/>
    <circle id="_열매_테두리" data-name="열매 테두리" class="cls-14" cx="174.22" cy="24.63" r="22.13"/>
  </g>
  <g id="_왼쪽_열매" data-name="왼쪽 열매">
    <g id="_열매_색칠-2" data-name="열매 색칠">
      <path class="cls-9" d="M208.72,23.07c-1.02,2.94-.51,5.37.8,8.12,2.04,4.29,8.12,3.5,10.36,0s2.76-7.74-.12-10.95c-2.37-2.64-6.44-3.27-9.49-1.41-6.4,3.91-4.94,16.85,3.54,16.6,7.52-.22,12.01-10.26,8.09-16.25-4.53-6.93-13.83-5.06-18.49.53-2.93,3.51-1.88,8.54,2.65,10.03s10.21,1.03,12.58-3.83c2.08-4.27-.16-9.65-4.82-10.87-10.81-2.84-14.28,13.85-12.43,21.14l10.97-4.62c-1.88-2.57-3.47-8.33,1.18-9.35,3.55-.78,5.92,4.23,7.06,6.76,3.14-2.42,6.28-4.85,9.42-7.27-4.19-4.22-10.17-6.62-16.05-4.68-2.75.91-5.34,2.94-6.9,5.38-1.69,2.66-1.18,4.92-1.96,7.73l2.76-3.59c1.47-.14,1.72-.22.75-.23-.53-.05-1.06-.04-1.59.02-1.12.11-2.01.36-3.03.82-2.27,1.03-3.92,2.95-4.65,5.35-1.56,5.13,1.2,9.9,5.75,12.36,10.17,5.5,23.65-.91,21.36-13.29l-10.97,4.62c4.08,9.4,17.52,7.34,19.7-2.25,1.27-5.61-5.73-10.38-10.03-5.84-1.31,1.39-2.63,2.77-3.94,4.16-5.31,5.6,3.16,14.1,8.49,8.49,1.31-1.39,2.63-2.77,3.94-4.16l-10.03-5.84,2.24-.62c-2.88-6.63-12.12-1.59-10.97,4.62.06.33-2.92-.12-3.04-.11-1.89.29-5.73,3.13-2.68,3.68,1.94.35,4.66-.95,5.98-2.37,1.73-1.87,1.34-3.82,2.02-5.98.81-2.57,2.54-1.65,4.38.2,5.09,5.14,12.08-1.35,9.42-7.27-3.92-8.73-13.3-15.94-23.02-11.35-9.93,4.68-12.21,17.48-5.94,26.06,3.85,5.27,12.74,2.36,10.97-4.62-.57-2.25-.49-5.68,1.8-7.09l-4.62.6,1,.23-3.59-2.76,1.7-5.8,2.65,10.03c.44-.65.98-1.2,1.62-1.65-2.64-2.41-2.7-3.43-.17-3.05l4.24,1.76-1.48,4.26-4.62-.6,1,.76-2.76-3.59-.21-.95h10.36l.41,1.13c2.53-7.31-9.06-10.46-11.57-3.19h0Z"/>
    </g>
    <g id="_열매_색칠-3" data-name="열매 색칠">
      <path class="cls-9" d="M221.73,26.87c.72,2.44,1.81,3.69,3.85,5.1,2.9,2.01,8.3.14,8.81-3.59.47-3.39.28-6.36-1.67-9.28-3.14,2.42-6.28,4.85-9.42,7.27,2.45,2.81-3.99,7.48-5.61,8.68-2.6,1.92-3.91,5.2-2.15,8.21,1.5,2.57,5.59,4.09,8.21,2.15,4.5-3.33,8.89-6.89,10.89-12.31s.86-10.95-2.85-15.21c-4.45-5.1-13.2,1.59-9.42,7.27.55,1.09.7,1.11.46.04l8.81-3.59-.81-.56,2.76,3.59-.28-.95c-2.17-7.39-13.76-4.25-11.57,3.19h0Z"/>
    </g>
    <path id="_열매_명암-2" data-name="열매 명암" class="cls-3" d="M199.24,15.41s1.23,10.92,7.97,18.14,16.68,12.83,16.68,12.83l-10.7.78-9.19-3.59-7.93-13.88,3.17-14.29Z"/>
    <circle id="_열매_테두리-2" data-name="열매 테두리" class="cls-14" cx="215.29" cy="28.99" r="18.89"/>
  </g>
</svg>